<?xml version="1.0" encoding="UTF-8"?>
<svg id="Layer_1" data-name="Layer 1" xmlns="http://www.w3.org/2000/svg" viewBox="0 0 595.28 595.28">
  <defs>
    <style>
      .cls-1 {
        fill: #999;
      }

      .cls-1, .cls-2 {
        stroke-width: 0px;
      }

      .cls-2 {
        fill: #66b5a1;
      }
    </style>
  </defs>
  <path class="cls-1" d="M459.66,160.43c-.19,22.86-.11,45.72-.13,68.59-.21.17-.42.38-.64.57-.17.13-.34.25-.53.32-7.58,2.55-15.09,5.24-22.76,7.51-6.11,1.8-12.29,3.38-18.53,4.8-6.81,1.55-13.71,2.72-20.44,4.75-2.1.66-3.93,1.68-7.15,1.72-.25-.42-.51-.87-.7-1.32-4.61-8.64-5.79-20.25-3.1-30.8.13-.57.28-1.15.45-1.72.57-1.89,1.25-3.74,2.08-5.52.21-.49.45-.98.7-1.44,2.21-4.37,5.26-8.28,9.17-11.34,5.48-4.27,11.74-6.73,18.53-7.58,6.92-.89,13.73-.06,20.12,2.87,6.28,2.89,11.17,7.45,14.84,13.42,1.1-1.08.68-2.17.68-3.1.02-13.84.11-27.68-.04-41.52-.04-2.76.76-3.59,3.44-3.35,2.17.19,4.03-.42,4.01,3.14Z"/>
  <g>
    <path class="cls-1" d="M86.1,430.59v-26.03h11.63c2.94,0,5.54.55,7.79,1.64,2.25,1.09,3.99,2.62,5.24,4.57,1.25,1.96,1.87,4.23,1.87,6.81s-.63,4.85-1.87,6.8c-1.25,1.96-3,3.48-5.24,4.58-2.25,1.09-4.84,1.64-7.79,1.64h-11.63ZM90.05,427.36h7.45c2.29,0,4.26-.41,5.93-1.23,1.67-.82,2.96-1.97,3.88-3.44.92-1.47,1.38-3.18,1.38-5.11s-.46-3.67-1.38-5.13c-.92-1.46-2.21-2.6-3.88-3.42-1.67-.82-3.65-1.23-5.93-1.23h-7.45v19.56Z"/>
    <path class="cls-1" d="M127.42,430.81c-2.23,0-4.2-.43-5.89-1.3s-3.01-2.06-3.94-3.57c-.93-1.51-1.4-3.25-1.4-5.21s.45-3.69,1.36-5.21c.91-1.51,2.15-2.7,3.74-3.55s3.38-1.28,5.38-1.28,3.81.42,5.36,1.26,2.77,2.03,3.65,3.55c.88,1.52,1.32,3.3,1.32,5.34,0,.15,0,.32-.02.52-.01.2-.03.38-.06.56h-17.78v-2.57h15.81l-1.54.89c.03-1.26-.25-2.39-.83-3.38-.58-.99-1.37-1.77-2.39-2.32-1.01-.56-2.19-.84-3.53-.84s-2.48.28-3.51.84c-1.03.56-1.83,1.34-2.4,2.34-.58,1-.87,2.15-.87,3.44v.59c0,1.32.32,2.49.97,3.51.64,1.03,1.54,1.83,2.7,2.4,1.16.57,2.48.86,3.98.86,1.23,0,2.36-.2,3.37-.59s1.9-.99,2.66-1.78l2.09,2.31c-.95,1.04-2.12,1.83-3.53,2.38-1.41.55-2.98.82-4.71.82Z"/>
    <path class="cls-1" d="M148.23,430.81c-1.73,0-3.38-.22-4.95-.67-1.56-.45-2.79-.99-3.69-1.64l1.58-2.83c.89.57,2,1.05,3.31,1.45,1.31.4,2.65.59,4.02.59,1.76,0,3.03-.24,3.8-.71.77-.47,1.16-1.13,1.16-1.97,0-.62-.24-1.1-.71-1.45-.47-.35-1.1-.61-1.87-.78-.78-.17-1.64-.33-2.58-.46s-1.89-.31-2.84-.52-1.81-.51-2.6-.89-1.42-.92-1.89-1.6c-.47-.68-.71-1.59-.71-2.73s.36-2.23,1.06-3.12c.71-.89,1.71-1.58,3.02-2.06,1.3-.48,2.84-.73,4.63-.73,1.37,0,2.75.16,4.16.47s2.56.75,3.45,1.32l-1.62,2.83c-.95-.59-1.93-1.01-2.96-1.23-1.03-.22-2.05-.33-3.08-.33-1.66,0-2.89.25-3.71.76-.82.51-1.22,1.16-1.22,1.95,0,.67.24,1.18.73,1.54.49.36,1.12.64,1.89.84.77.2,1.64.37,2.58.5.95.14,1.89.31,2.84.52s1.81.5,2.58.87c.77.37,1.41.89,1.89,1.56.49.67.73,1.56.73,2.68,0,1.19-.37,2.22-1.1,3.09-.74.87-1.77,1.54-3.11,2.03-1.34.48-2.94.73-4.81.73Z"/>
    <path class="cls-1" d="M163.88,407.09c-.74,0-1.35-.22-1.83-.67-.49-.45-.73-.99-.73-1.64s.24-1.23.73-1.67c.49-.45,1.1-.67,1.83-.67s1.35.22,1.83.65c.49.43.73.97.73,1.62s-.24,1.23-.71,1.69c-.47.46-1.09.69-1.85.69ZM161.99,430.59v-19.71h3.78v19.71h-3.78Z"/>
    <path class="cls-1" d="M181.66,429.77c-2.02,0-3.83-.4-5.42-1.21-1.59-.8-2.85-1.93-3.78-3.37-.93-1.44-1.4-3.1-1.4-4.98s.47-3.58,1.4-5c.93-1.43,2.19-2.53,3.78-3.33,1.59-.79,3.4-1.19,5.42-1.19,1.79,0,3.42.34,4.89,1.02,1.47.68,2.65,1.73,3.53,3.14.88,1.41,1.32,3.2,1.32,5.35s-.44,3.9-1.32,5.32c-.88,1.41-2.06,2.47-3.53,3.18-1.47.71-3.1,1.06-4.89,1.06ZM182.13,438.03c-1.92,0-3.78-.25-5.58-.76-1.8-.51-3.27-1.23-4.4-2.18l1.81-2.75c.97.79,2.17,1.42,3.59,1.88s2.9.69,4.45.69c2.47,0,4.28-.55,5.44-1.64,1.16-1.09,1.73-2.75,1.73-4.98v-4.17l.39-3.9-.2-3.94v-5.39h3.59v17.03c0,3.47-.92,6.02-2.76,7.66-1.84,1.64-4.53,2.46-8.08,2.46ZM182.1,426.65c1.39,0,2.63-.27,3.71-.82s1.92-1.3,2.54-2.27c.62-.97.93-2.08.93-3.35s-.31-2.38-.93-3.35c-.62-.97-1.47-1.72-2.54-2.25s-2.31-.8-3.71-.8-2.64.27-3.73.8-1.95,1.28-2.56,2.25c-.62.97-.93,2.08-.93,3.35s.31,2.38.93,3.35c.62.97,1.47,1.72,2.56,2.27s2.33.82,3.73.82Z"/>
    <path class="cls-1" d="M211.35,410.69c1.71,0,3.21.31,4.51.93,1.3.62,2.32,1.56,3.06,2.83.74,1.27,1.1,2.86,1.1,4.8v11.34h-3.78v-10.93c0-1.91-.49-3.35-1.48-4.31-.99-.97-2.37-1.45-4.16-1.45-1.34,0-2.51.25-3.51.75-1,.5-1.77,1.23-2.31,2.19s-.81,2.17-.81,3.61v10.15h-3.78v-19.71h3.63v5.32l-.59-1.41c.68-1.29,1.73-2.29,3.15-3.01,1.42-.72,3.08-1.08,4.97-1.08Z"/>
    <path class="cls-1" d="M227.94,430.81c-.74,0-1.37-.24-1.89-.73-.53-.48-.79-1.1-.79-1.84s.26-1.35.79-1.82c.53-.47,1.16-.71,1.89-.71s1.32.24,1.83.71c.51.47.77,1.08.77,1.82s-.26,1.36-.77,1.84c-.51.48-1.12.73-1.83.73Z"/>
    <path class="cls-1" d="M247.14,430.59v-26.03h10.76c2.42,0,4.48.36,6.19,1.08,1.71.72,3.02,1.76,3.94,3.12.92,1.36,1.38,2.99,1.38,4.87s-.46,3.5-1.38,4.85c-.92,1.35-2.23,2.39-3.94,3.12-1.71.73-3.77,1.1-6.19,1.1h-8.59l1.77-1.75v9.63h-3.94ZM251.08,421.33l-1.77-1.86h8.48c2.52,0,4.43-.51,5.74-1.52,1.3-1.02,1.95-2.45,1.95-4.31s-.65-3.3-1.95-4.31c-1.3-1.02-3.21-1.52-5.74-1.52h-8.48l1.77-1.86v15.4Z"/>
    <path class="cls-1" d="M274.3,430.59v-19.71h3.63v5.36l-.35-1.34c.58-1.36,1.55-2.4,2.92-3.12,1.37-.72,3.05-1.08,5.05-1.08v3.46c-.16-.02-.31-.04-.45-.04h-.41c-2.02,0-3.63.57-4.81,1.71-1.18,1.14-1.77,2.79-1.77,4.95v9.82h-3.78Z"/>
    <path class="cls-1" d="M292.08,407.09c-.74,0-1.35-.22-1.83-.67-.49-.45-.73-.99-.73-1.64s.24-1.23.73-1.67c.49-.45,1.1-.67,1.83-.67s1.35.22,1.83.65c.49.43.73.97.73,1.62s-.24,1.23-.71,1.69c-.47.46-1.09.69-1.85.69ZM290.19,430.59v-19.71h3.78v19.71h-3.78Z"/>
    <path class="cls-1" d="M312.34,410.69c1.71,0,3.21.31,4.51.93,1.3.62,2.32,1.56,3.06,2.83.74,1.27,1.1,2.86,1.1,4.8v11.34h-3.78v-10.93c0-1.91-.49-3.35-1.48-4.31-.99-.97-2.37-1.45-4.16-1.45-1.34,0-2.51.25-3.51.75s-1.77,1.23-2.31,2.19c-.54.97-.81,2.17-.81,3.61v10.15h-3.78v-19.71h3.63v5.32l-.59-1.41c.68-1.29,1.74-2.29,3.15-3.01,1.42-.72,3.08-1.08,4.97-1.08Z"/>
    <path class="cls-1" d="M325.04,413.82v-2.94h13.33v2.94h-13.33ZM335.21,430.81c-2.1,0-3.73-.53-4.89-1.6s-1.73-2.59-1.73-4.58v-18.07h3.78v17.92c0,1.07.28,1.89.85,2.46.56.57,1.37.86,2.43.86,1.18,0,2.17-.31,2.96-.93l1.18,2.57c-.58.47-1.27.82-2.07,1.04s-1.64.33-2.5.33Z"/>
    <path class="cls-1" d="M345.65,430.81c-.74,0-1.37-.24-1.89-.73s-.79-1.1-.79-1.84.26-1.35.79-1.82,1.16-.71,1.89-.71,1.32.24,1.83.71.77,1.08.77,1.82-.26,1.36-.77,1.84-1.12.73-1.83.73Z"/>
    <path class="cls-1" d="M364.85,430.59v-26.03h3.94v26.03h-3.94Z"/>
    <path class="cls-1" d="M402.66,410.69c1.68,0,3.17.31,4.46.93s2.29,1.56,3.02,2.83c.72,1.27,1.08,2.86,1.08,4.8v11.34h-3.78v-10.93c0-1.91-.47-3.35-1.42-4.31-.95-.97-2.27-1.45-3.98-1.45-1.26,0-2.36.25-3.31.75s-1.68,1.23-2.19,2.19-.77,2.17-.77,3.61v10.15h-3.78v-10.93c0-1.91-.47-3.35-1.4-4.31-.93-.97-2.27-1.45-4-1.45-1.24,0-2.33.25-3.27.75s-1.68,1.23-2.21,2.19-.79,2.17-.79,3.61v10.15h-3.78v-19.71h3.63v5.24l-.59-1.34c.66-1.29,1.67-2.29,3.04-3.01,1.37-.72,2.96-1.08,4.77-1.08,2,0,3.72.47,5.16,1.4,1.44.93,2.39,2.34,2.84,4.22l-1.54-.59c.63-1.51,1.74-2.73,3.31-3.65,1.58-.92,3.42-1.38,5.52-1.38Z"/>
    <path class="cls-1" d="M418.19,437.81v-26.93h3.63v5.32l-.24,4.57.39,4.58v12.46h-3.78ZM429.27,430.81c-1.74,0-3.32-.38-4.75-1.13-1.43-.76-2.58-1.88-3.43-3.36-.86-1.49-1.28-3.35-1.28-5.58s.41-4.09,1.24-5.58c.83-1.49,1.96-2.6,3.39-3.35s3.04-1.12,4.83-1.12c2.05,0,3.86.42,5.44,1.26s2.82,2.01,3.74,3.51c.92,1.5,1.38,3.25,1.38,5.26s-.46,3.77-1.38,5.28-2.17,2.69-3.74,3.53c-1.58.84-3.39,1.26-5.44,1.26ZM428.95,427.69c1.34,0,2.54-.29,3.61-.86s1.9-1.38,2.52-2.44c.62-1.05.93-2.28.93-3.66s-.31-2.63-.93-3.66c-.62-1.03-1.46-1.83-2.52-2.4s-2.27-.86-3.61-.86-2.5.29-3.57.86-1.91,1.37-2.52,2.4c-.62,1.03-.93,2.25-.93,3.66s.31,2.61.93,3.66c.62,1.05,1.46,1.87,2.52,2.44s2.25.86,3.57.86Z"/>
    <path class="cls-1" d="M450.99,430.81c-1.55,0-2.91-.25-4.08-.74s-2.07-1.18-2.7-2.06-.95-1.88-.95-2.99.27-2.03.81-2.9c.54-.87,1.42-1.56,2.64-2.08s2.87-.78,4.95-.78h6.62v2.57h-6.46c-1.89,0-3.17.3-3.82.89s-.98,1.32-.98,2.16c0,.97.41,1.74,1.22,2.32.81.58,1.94.87,3.39.87s2.66-.3,3.73-.89,1.83-1.46,2.31-2.6l.75,2.46c-.5,1.17-1.38,2.09-2.64,2.77-1.26.68-2.85,1.02-4.77,1.02ZM457.85,430.59v-4.16l-.2-.78v-7.1c0-1.51-.47-2.68-1.4-3.51s-2.33-1.25-4.2-1.25c-1.24,0-2.44.19-3.63.58s-2.18.9-3,1.54l-1.58-2.68c1.08-.82,2.37-1.44,3.88-1.88s3.09-.65,4.75-.65c2.86,0,5.07.66,6.62,1.97,1.55,1.32,2.32,3.32,2.32,6.03v11.9h-3.59Z"/>
    <path class="cls-1" d="M477.56,430.81c-2.13,0-4.03-.43-5.7-1.3s-2.98-2.06-3.92-3.57-1.42-3.25-1.42-5.21.47-3.69,1.42-5.21,2.25-2.7,3.92-3.55,3.57-1.28,5.7-1.28c1.89,0,3.58.35,5.07,1.06,1.48.71,2.63,1.75,3.45,3.14l-2.88,1.75c-.68-.97-1.52-1.68-2.5-2.14s-2.04-.69-3.17-.69c-1.37,0-2.59.29-3.67.86-1.08.57-1.93,1.37-2.56,2.4s-.95,2.25-.95,3.66.32,2.64.95,3.68c.63,1.04,1.48,1.85,2.56,2.42,1.08.57,2.3.86,3.67.86,1.13,0,2.19-.23,3.17-.69s1.82-1.17,2.5-2.14l2.88,1.71c-.81,1.36-1.97,2.41-3.45,3.14-1.49.73-3.17,1.1-5.07,1.1Z"/>
    <path class="cls-1" d="M488.24,413.82v-2.94h13.33v2.94h-13.33ZM498.41,430.81c-2.1,0-3.73-.53-4.89-1.6s-1.73-2.59-1.73-4.58v-18.07h3.78v17.92c0,1.07.28,1.89.85,2.46.56.57,1.37.86,2.43.86,1.18,0,2.17-.31,2.96-.93l1.18,2.57c-.58.47-1.27.82-2.07,1.04s-1.64.33-2.5.33Z"/>
    <path class="cls-1" d="M508.86,430.81c-.74,0-1.37-.24-1.89-.73s-.79-1.1-.79-1.84.26-1.35.79-1.82,1.16-.71,1.89-.71,1.32.24,1.83.71.77,1.08.77,1.82-.26,1.36-.77,1.84-1.12.73-1.83.73Z"/>
  </g>
  <g>
    <path class="cls-2" d="M142.42,283.72c5.78,2.6,10.24,6.32,13.38,11.15,3.14,4.83,4.71,10.51,4.71,17.03s-1.57,12.18-4.71,16.97c-3.14,4.79-7.6,8.48-13.38,11.09-5.78,2.6-12.59,3.9-20.44,3.9h-15.11v22.67h-24.53v-86.71h39.64c7.84,0,14.66,1.3,20.44,3.9ZM131.89,321.26c2.56-2.19,3.84-5.31,3.84-9.35s-1.28-7.18-3.84-9.41c-2.56-2.23-6.36-3.34-11.4-3.34h-13.63v25.4h13.63c5.04,0,8.84-1.09,11.4-3.28Z"/>
    <path class="cls-2" d="M179.4,361.27c-4.58-4.25-6.87-10.34-6.87-18.27v-68.38h23.54v67.14c0,2.48.64,4.38,1.92,5.7,1.28,1.32,3.08,1.98,5.39,1.98,1.9,0,3.67-.41,5.33-1.24l.99,17.71c-3.55,1.16-7.23,1.73-11.02,1.73-8.26,0-14.68-2.13-19.26-6.38Z"/>
    <path class="cls-2" d="M287.85,299.39v67.14h-22.42v-6.69c-4.38,5.2-10.98,7.8-19.82,7.8-6.11,0-11.67-1.42-16.66-4.27-5-2.85-8.96-6.92-11.89-12.2-2.93-5.28-4.4-11.4-4.4-18.33s1.47-13.03,4.4-18.27c2.93-5.24,6.89-9.27,11.89-12.08,5-2.81,10.55-4.21,16.66-4.21,7.93,0,14.16,2.31,18.71,6.94v-5.82h23.54ZM260.72,344.67c2.64-2.85,3.96-6.79,3.96-11.83s-1.32-8.84-3.96-11.64c-2.64-2.81-6.03-4.21-10.16-4.21s-7.52,1.41-10.16,4.21c-2.64,2.81-3.96,6.69-3.96,11.64s1.32,8.98,3.96,11.83c2.64,2.85,6.03,4.27,10.16,4.27s7.51-1.42,10.16-4.27Z"/>
    <path class="cls-2" d="M366.82,305.71c5.08,4.95,7.62,12.43,7.62,22.42v38.4h-23.54v-34.56c0-9.17-3.68-13.75-11.03-13.75-4.05,0-7.29,1.32-9.72,3.96-2.44,2.64-3.65,6.61-3.65,11.89v32.46h-23.54v-67.14h22.42v7.31c2.64-2.73,5.78-4.81,9.41-6.26,3.63-1.44,7.6-2.17,11.89-2.17,8.34,0,15.05,2.48,20.13,7.43Z"/>
    <path class="cls-2" d="M434.46,348.32c2.35-.91,4.73-2.39,7.12-4.46l12.26,12.88c-6.36,7.27-15.86,10.9-28.49,10.9-7.85,0-14.74-1.49-20.69-4.46s-10.55-7.1-13.81-12.39c-3.26-5.28-4.89-11.27-4.89-17.96s1.61-12.53,4.83-17.78c3.22-5.24,7.66-9.35,13.32-12.33,5.66-2.97,11.99-4.46,19.02-4.46,6.52,0,12.49,1.34,17.9,4.03,5.41,2.68,9.72,6.61,12.94,11.77,3.22,5.16,4.83,11.29,4.83,18.4l-47.94,9.17c2.56,5.37,7.64,8.05,15.24,8.05,3.22,0,6.01-.45,8.36-1.36ZM413.34,318.78c-2.56,2.52-4.01,6.13-4.34,10.84l27.25-5.33c-.83-2.81-2.4-5.06-4.71-6.75-2.31-1.69-5.08-2.54-8.3-2.54-4.05,0-7.35,1.26-9.91,3.78Z"/>
    <path class="cls-2" d="M512.93,363.81c-1.98,1.24-4.4,2.19-7.25,2.85-2.85.66-5.88.99-9.1.99-8.76,0-15.47-2.15-20.13-6.44-4.67-4.29-7-10.69-7-19.2v-57.6h23.54v17.47h15.24v17.59h-15.24v22.3c0,2.48.62,4.38,1.86,5.7,1.24,1.32,2.93,1.98,5.08,1.98,2.73,0,5.12-.7,7.18-2.11l5.82,16.48Z"/>
  </g>
  <path class="cls-1" d="M153.8,220.15c3.26,3.87,4.89,8.85,4.89,14.94,0,7.83-2.89,13.86-8.68,18.08-5.79,4.22-14.34,6.33-25.65,6.33h-42.02v-91.36h39.41c10.18,0,18.08,2.05,23.69,6.13,5.61,4.09,8.42,9.88,8.42,17.36,0,5.05-1.24,9.33-3.72,12.86-2.48,3.52-5.9,6.16-10.25,7.9,6,1.3,10.64,3.9,13.9,7.77ZM92,176.1v33.15h29.1c7.39,0,13.09-1.41,17.1-4.24,4-2.83,6-6.94,6-12.33s-2-9.5-6-12.33c-4-2.83-9.7-4.24-17.1-4.24h-29.1ZM142.77,247.36c4.18-2.78,6.26-7.13,6.26-13.05,0-11.4-8.27-17.1-24.8-17.1h-32.24v34.32h32.24c8.18,0,14.36-1.39,18.53-4.18Z"/>
  <path class="cls-1" d="M197.39,193.85c4.31-2.35,9.64-3.52,15.99-3.52v9.01l-2.22-.13c-7.22,0-12.88,2.22-16.97,6.66-4.09,4.44-6.13,10.66-6.13,18.66v34.98h-9.27v-68.65h8.87v13.44c2.17-4.61,5.42-8.09,9.72-10.44Z"/>
  <path class="cls-1" d="M292.07,190.85v68.65h-8.87v-13.57c-2.79,4.61-6.46,8.14-11.03,10.57-4.57,2.44-9.72,3.66-15.47,3.66-6.44,0-12.27-1.48-17.49-4.44-5.22-2.96-9.31-7.09-12.27-12.4-2.96-5.31-4.44-11.35-4.44-18.14s1.48-12.83,4.44-18.14c2.96-5.31,7.05-9.42,12.27-12.33,5.22-2.91,11.05-4.37,17.49-4.37,5.57,0,10.59,1.15,15.07,3.46,4.48,2.31,8.16,5.68,11.03,10.11v-13.05h9.27ZM270.47,248.6c3.87-2.22,6.92-5.37,9.14-9.46,2.22-4.09,3.33-8.75,3.33-13.97s-1.11-9.87-3.33-13.96c-2.22-4.09-5.27-7.24-9.14-9.46-3.87-2.22-8.2-3.33-12.99-3.33s-9.25,1.11-13.12,3.33c-3.87,2.22-6.92,5.37-9.14,9.46-2.22,4.09-3.33,8.74-3.33,13.96s1.11,9.88,3.33,13.97c2.22,4.09,5.26,7.24,9.14,9.46,3.87,2.22,8.24,3.33,13.12,3.33s9.11-1.11,12.99-3.33Z"/>
  <path class="cls-1" d="M371.82,244.5v15h9.26v-13.45l-9.26-1.55Z"/>
  <path class="cls-2" d="M509.92,206.89c-4.18,4.92-9.53,8.3-15.01,11.51-10.34,6.03-21.31,10.68-32.52,14.77-2.25.83-2.8,1.97-2.78,4.16.11,8.24-.04,16.47.08,24.71.04,2.44-.62,3.4-3.18,3.25-5.2-.28-4.61.66-4.63-4.52,0-2.84.02-5.71-.02-8.55-.02-.68.3-1.63-.62-1.93-.87-.25-1.27.64-1.68,1.19-3.06,4.27-6.86,7.73-11.51,10.15-14.82,7.68-33.26,4.99-45.07-6.81-2.12-2.1-4.05-2.4-6.73-1.95-1.74.3-3.46.55-5.2.81-3.08.45-6.18.81-9.26,1.04-8.7.79-17.41.79-26.15-.34-2.21-.28-4.33-.98-6.35-1.89-7.11-3.21-8.38-9.13-3.18-15.01,4.03-4.56,9.02-7.92,14.2-10.97,6.81-3.99,13.95-7.37,21.18-10.46,2.95-1.25,5.9-2.46,8.87-3.67.02,0,.06-.02.08-.02.36-.15.72-.28,1.1-.4.17-.04,2.78-1.29,4.54-2.05l-1.29,5.66c-1.25.62-2.95,1.46-3.82,1.87-.28.13-.47.21-.55.25-2.91,1.12-5.8,2.31-8.64,3.54-7.62,3.27-15.03,6.96-22.06,11.4-3.21,2.04-6.22,4.33-8.89,7.05-4.46,4.56-3.63,7.71,2.65,9.23,6.16,1.51,12.5,2.14,18.83,1.68,3.16-.23,6.33-.53,9.47-.87,3.08-.32,6.18-.66,9.26-1,1.61-.17,3.23-.34,4.84-.51,1.04-.11,1.93-.34,2.87-.81.23-.11.45-.23.68-.36,2.63.17,5.31-.06,7.37-.34,6.92-2.12,14.03-3.33,21.04-4.92,6.43-1.44,12.8-3.08,19.1-4.92,7.37-2.19,14.65-4.75,21.93-7.24.49-.17,1-.34,1.49-.51.47-.15.83-.62,1.21-.91,15.05-5.41,29.68-11.63,42.16-21.97,2.17-1.8,4.84-3.78,4.03-6.96-.74-2.93-3.82-3.23-6.43-3.8-8.66-1.95-17.39-1.36-26.11-.76-3.25.21-8.68.83-11.93,1.06-1.46.11-1.17-.85-1.25-2.46-.11-1.59-.42-2.08,1-2.23,12.38-1.27,26.87-2.97,39.27-.36,1.23.25,2.44.66,3.63,1.08,7.51,2.65,9.15,9.02,3.97,15.13Z"/>
  <path class="cls-1" d="M381.08,219.69v26.36l-9.26-1.55v-23.89c0-7.14-1.79-12.58-5.37-16.32-3.56-3.74-8.64-5.61-15.26-5.61-7.4,0-13.25,2.2-17.55,6.58-4.32,4.4-6.47,10.47-6.47,18.22v36.01h-9.26v-68.66h8.87v12.67c2.52-4.17,6.02-7.42,10.51-9.73,4.47-2.31,9.67-3.47,15.59-3.47,8.61,0,15.46,2.52,20.55,7.51,5.09,5.01,7.64,12.3,7.64,21.85Z"/>
</svg>