<?xml version="1.0" encoding="UTF-8"?>
<svg id="Layer_1" data-name="Layer 1" xmlns="http://www.w3.org/2000/svg" viewBox="0 0 595.28 595.28">
  <defs>
    <style>
      .cls-1 {
        fill: #999;
      }

      .cls-1, .cls-2 {
        stroke-width: 0px;
      }

      .cls-2 {
        fill: #66b5a1;
      }
    </style>
  </defs>
  <g>
    <path class="cls-1" d="M119.28,346.25v-21.95h9.8c2.48,0,4.67.46,6.56,1.38,1.89.92,3.37,2.21,4.42,3.86,1.05,1.65,1.58,3.56,1.58,5.74s-.53,4.09-1.58,5.74c-1.05,1.65-2.53,2.94-4.42,3.86-1.89.92-4.08,1.38-6.56,1.38h-9.8ZM122.61,343.53h6.28c1.93,0,3.6-.35,5-1.04,1.41-.69,2.5-1.66,3.27-2.9.77-1.24,1.16-2.68,1.16-4.31s-.39-3.09-1.16-4.33c-.78-1.23-1.87-2.19-3.27-2.88-1.41-.69-3.07-1.03-5-1.03h-6.28v16.49Z"/>
    <path class="cls-1" d="M154.11,346.44c-1.88,0-3.54-.37-4.97-1.1-1.43-.73-2.54-1.74-3.32-3.01s-1.18-2.74-1.18-4.39.38-3.11,1.15-4.39c.76-1.27,1.82-2.27,3.16-2.99,1.34-.72,2.85-1.08,4.54-1.08s3.21.36,4.52,1.07c1.31.71,2.33,1.71,3.07,3,.74,1.29,1.11,2.79,1.11,4.5,0,.13,0,.27-.02.44-.01.17-.03.32-.05.47h-14.99v-2.16h13.33l-1.3.75c.02-1.07-.21-2.02-.7-2.85-.49-.84-1.16-1.49-2.01-1.96s-1.84-.71-2.97-.71-2.09.23-2.96.71c-.86.47-1.54,1.13-2.03,1.98-.49.85-.73,1.81-.73,2.9v.5c0,1.11.27,2.1.81,2.96.54.87,1.3,1.54,2.28,2.02.98.48,2.09.72,3.36.72,1.04,0,1.99-.17,2.84-.5.85-.33,1.6-.84,2.24-1.5l1.76,1.94c-.8.88-1.79,1.55-2.97,2.01-1.19.46-2.51.69-3.97.69Z"/>
    <path class="cls-1" d="M171.67,346.44c-1.46,0-2.85-.19-4.17-.56-1.32-.38-2.35-.84-3.11-1.38l1.33-2.38c.75.48,1.68.89,2.79,1.22,1.11.33,2.24.5,3.39.5,1.48,0,2.55-.2,3.21-.6.65-.4.98-.95.98-1.66,0-.52-.2-.93-.6-1.22s-.93-.51-1.58-.66-1.38-.28-2.18-.39-1.6-.26-2.39-.44c-.8-.18-1.53-.43-2.19-.75-.67-.32-1.2-.77-1.6-1.35-.4-.58-.6-1.34-.6-2.3s.3-1.88.9-2.63c.6-.75,1.45-1.33,2.54-1.74s2.4-.61,3.91-.61c1.15,0,2.32.13,3.51.39,1.18.26,2.15.63,2.91,1.11l-1.36,2.38c-.8-.5-1.63-.85-2.49-1.03-.86-.19-1.73-.28-2.59-.28-1.4,0-2.44.22-3.13.64s-1.03.98-1.03,1.65c0,.56.21,1,.62,1.3.41.3.94.54,1.6.71s1.38.31,2.18.42,1.6.26,2.39.44,1.52.42,2.18.74c.65.31,1.18.75,1.6,1.32.41.56.62,1.32.62,2.26,0,1-.31,1.87-.93,2.6-.62.73-1.5,1.3-2.63,1.71-1.13.41-2.48.61-4.05.61Z"/>
    <path class="cls-1" d="M184.86,326.44c-.62,0-1.14-.19-1.55-.56-.41-.38-.61-.84-.61-1.38s.2-1.04.61-1.41.93-.56,1.55-.56,1.14.18,1.55.55c.41.37.61.82.61,1.36s-.2,1.04-.6,1.43-.92.58-1.56.58ZM183.27,346.25v-16.62h3.19v16.62h-3.19Z"/>
    <path class="cls-1" d="M199.85,345.56c-1.71,0-3.23-.34-4.57-1.02s-2.41-1.62-3.19-2.84c-.79-1.21-1.18-2.61-1.18-4.2s.39-3.01,1.18-4.22,1.85-2.14,3.19-2.81c1.34-.67,2.86-1,4.57-1,1.51,0,2.88.29,4.12.86,1.24.58,2.23,1.46,2.98,2.65.74,1.19,1.11,2.7,1.11,4.51s-.37,3.29-1.11,4.48c-.74,1.19-1.74,2.08-2.98,2.68s-2.61.89-4.12.89ZM200.25,352.52c-1.62,0-3.19-.21-4.7-.64-1.52-.43-2.75-1.04-3.71-1.83l1.53-2.32c.82.67,1.83,1.2,3.02,1.58,1.2.39,2.45.58,3.76.58,2.08,0,3.61-.46,4.59-1.38.98-.92,1.46-2.32,1.46-4.2v-3.51l.33-3.29-.17-3.32v-4.55h3.02v14.36c0,2.93-.78,5.08-2.33,6.46-1.55,1.38-3.82,2.07-6.81,2.07ZM200.22,342.93c1.17,0,2.21-.23,3.12-.69.91-.46,1.62-1.1,2.14-1.91.52-.81.78-1.76.78-2.82s-.26-2.01-.78-2.82c-.52-.81-1.24-1.45-2.14-1.9-.91-.45-1.95-.67-3.12-.67s-2.22.23-3.14.67c-.92.45-1.64,1.08-2.16,1.9-.52.82-.78,1.76-.78,2.82s.26,2.01.78,2.82c.52.82,1.24,1.45,2.16,1.91.92.46,1.97.69,3.14.69Z"/>
    <path class="cls-1" d="M224.88,329.48c1.44,0,2.71.26,3.81.78,1.1.52,1.96,1.32,2.58,2.38.62,1.07.93,2.42.93,4.05v9.56h-3.19v-9.22c0-1.61-.42-2.82-1.25-3.64-.83-.82-2-1.22-3.51-1.22-1.13,0-2.12.21-2.96.63s-1.49,1.03-1.94,1.85c-.45.81-.68,1.83-.68,3.04v8.56h-3.19v-16.62h3.06v4.48l-.5-1.19c.58-1.09,1.46-1.93,2.66-2.54s2.59-.91,4.19-.91Z"/>
    <path class="cls-1" d="M238.87,346.44c-.62,0-1.15-.2-1.6-.61-.44-.41-.66-.92-.66-1.55s.22-1.14.66-1.54c.44-.4.98-.6,1.6-.6s1.11.2,1.54.6c.43.4.65.91.65,1.54s-.22,1.14-.65,1.55c-.43.41-.95.61-1.54.61Z"/>
    <path class="cls-1" d="M255.06,346.25v-21.95h9.07c2.04,0,3.78.3,5.22.91,1.44.61,2.55,1.48,3.32,2.63.78,1.15,1.16,2.52,1.16,4.11s-.39,2.95-1.16,4.09-1.88,2.02-3.32,2.63c-1.44.62-3.18.93-5.22.93h-7.25l1.5-1.47v8.12h-3.32ZM258.38,338.45l-1.5-1.57h7.15c2.13,0,3.74-.43,4.84-1.29,1.1-.86,1.65-2.07,1.65-3.64s-.55-2.78-1.65-3.64c-1.1-.86-2.71-1.29-4.84-1.29h-7.15l1.5-1.57v12.98Z"/>
    <path class="cls-1" d="M277.96,346.25v-16.62h3.06v4.51l-.3-1.13c.49-1.15,1.31-2.03,2.46-2.63s2.57-.91,4.26-.91v2.92c-.13-.02-.26-.03-.38-.03h-.35c-1.71,0-3.06.48-4.05,1.44-1,.96-1.5,2.35-1.5,4.17v8.28h-3.19Z"/>
    <path class="cls-1" d="M292.95,326.44c-.62,0-1.14-.19-1.54-.56-.41-.38-.62-.84-.62-1.38s.21-1.04.62-1.41c.41-.38.93-.56,1.54-.56s1.14.18,1.55.55c.41.37.62.82.62,1.36s-.2,1.04-.6,1.43c-.4.39-.92.58-1.56.58ZM291.36,346.25v-16.62h3.19v16.62h-3.19Z"/>
    <path class="cls-1" d="M310.04,329.48c1.44,0,2.71.26,3.81.78s1.96,1.32,2.58,2.38c.62,1.07.93,2.42.93,4.05v9.56h-3.19v-9.22c0-1.61-.42-2.82-1.25-3.64-.83-.82-2-1.22-3.51-1.22-1.13,0-2.12.21-2.96.63-.84.42-1.49,1.03-1.94,1.85-.45.81-.68,1.83-.68,3.04v8.56h-3.19v-16.62h3.06v4.48l-.5-1.19c.58-1.09,1.46-1.93,2.66-2.54,1.2-.61,2.59-.91,4.19-.91Z"/>
    <path class="cls-1" d="M320.74,332.11v-2.48h11.23v2.48h-11.23ZM329.31,346.44c-1.77,0-3.15-.45-4.12-1.35s-1.46-2.18-1.46-3.86v-15.24h3.19v15.11c0,.9.24,1.59.71,2.07s1.16.72,2.05.72c1,0,1.83-.26,2.49-.78l1,2.16c-.49.4-1.07.69-1.75.88-.68.19-1.38.28-2.11.28Z"/>
    <path class="cls-1" d="M338.12,346.44c-.62,0-1.15-.2-1.6-.61-.44-.41-.67-.92-.67-1.55s.22-1.14.67-1.54c.44-.4.97-.6,1.6-.6s1.11.2,1.55.6c.43.4.65.91.65,1.54s-.22,1.14-.65,1.55c-.43.41-.95.61-1.55.61Z"/>
    <path class="cls-1" d="M354.31,346.25v-21.95h3.32v21.95h-3.32Z"/>
    <path class="cls-1" d="M386.18,329.48c1.42,0,2.67.26,3.76.78,1.08.52,1.93,1.32,2.54,2.38.61,1.07.91,2.42.91,4.05v9.56h-3.19v-9.22c0-1.61-.4-2.82-1.2-3.64-.8-.82-1.92-1.22-3.36-1.22-1.06,0-1.99.21-2.79.63-.8.42-1.41,1.03-1.84,1.85-.43.81-.65,1.83-.65,3.04v8.56h-3.19v-9.22c0-1.61-.39-2.82-1.18-3.64-.79-.82-1.91-1.22-3.37-1.22-1.04,0-1.96.21-2.76.63s-1.42,1.03-1.86,1.85c-.44.81-.66,1.83-.66,3.04v8.56h-3.19v-16.62h3.06v4.42l-.5-1.13c.55-1.09,1.41-1.93,2.56-2.54,1.15-.61,2.49-.91,4.02-.91,1.68,0,3.14.39,4.35,1.18,1.22.78,2.02,1.97,2.39,3.56l-1.3-.5c.53-1.27,1.46-2.3,2.79-3.07s2.88-1.16,4.65-1.16Z"/>
    <path class="cls-1" d="M399.28,352.34v-22.7h3.06v4.48l-.2,3.86.33,3.86v10.5h-3.19ZM408.62,346.44c-1.46,0-2.8-.32-4-.96-1.21-.64-2.17-1.58-2.89-2.84-.72-1.25-1.08-2.82-1.08-4.7s.35-3.45,1.05-4.7,1.65-2.19,2.86-2.82c1.21-.63,2.56-.94,4.07-.94,1.73,0,3.26.36,4.59,1.07,1.33.71,2.38,1.7,3.16,2.96.77,1.27,1.16,2.74,1.16,4.44s-.39,3.18-1.16,4.45c-.78,1.27-1.83,2.27-3.16,2.98-1.33.71-2.86,1.07-4.59,1.07ZM408.35,343.81c1.13,0,2.14-.24,3.04-.72.9-.48,1.61-1.16,2.13-2.05s.78-1.92.78-3.09-.26-2.22-.78-3.09-1.23-1.54-2.13-2.02c-.9-.48-1.91-.72-3.04-.72s-2.11.24-3.01.72c-.9.48-1.61,1.16-2.13,2.02s-.78,1.9-.78,3.09.26,2.2.78,3.09,1.23,1.57,2.13,2.05c.9.48,1.9.72,3.01.72Z"/>
    <path class="cls-1" d="M426.93,346.44c-1.31,0-2.45-.21-3.44-.63-.99-.42-1.74-1-2.28-1.74-.53-.74-.8-1.58-.8-2.52s.23-1.71.68-2.45c.45-.73,1.2-1.32,2.23-1.76,1.03-.44,2.42-.66,4.17-.66h5.58v2.16h-5.45c-1.6,0-2.67.25-3.22.75-.55.5-.83,1.11-.83,1.82,0,.81.34,1.47,1.03,1.96.69.49,1.64.74,2.86.74s2.24-.25,3.14-.75,1.55-1.23,1.94-2.2l.63,2.07c-.42.98-1.16,1.76-2.23,2.34-1.06.58-2.4.86-4.02.86ZM432.72,346.25v-3.51l-.17-.66v-5.99c0-1.27-.39-2.26-1.18-2.96-.79-.7-1.97-1.05-3.54-1.05-1.04,0-2.06.16-3.06.49-1,.32-1.84.76-2.53,1.3l-1.33-2.26c.91-.69,2-1.22,3.27-1.58,1.27-.37,2.61-.55,4.01-.55,2.41,0,4.28.55,5.58,1.66,1.31,1.11,1.96,2.8,1.96,5.08v10.03h-3.02Z"/>
    <path class="cls-1" d="M449.34,346.44c-1.79,0-3.4-.37-4.8-1.1-1.41-.73-2.51-1.74-3.31-3.01-.8-1.27-1.2-2.74-1.2-4.39s.4-3.11,1.2-4.39c.8-1.27,1.9-2.27,3.31-2.99,1.41-.72,3.01-1.08,4.8-1.08,1.6,0,3.02.3,4.27.89s2.22,1.48,2.91,2.65l-2.43,1.47c-.58-.81-1.28-1.42-2.11-1.8-.83-.39-1.72-.58-2.68-.58-1.15,0-2.18.24-3.09.72-.91.48-1.63,1.16-2.16,2.02-.53.87-.8,1.9-.8,3.09s.27,2.23.8,3.1c.53.88,1.25,1.56,2.16,2.04.91.48,1.94.72,3.09.72.95,0,1.84-.19,2.68-.58.83-.39,1.53-.99,2.11-1.8l2.43,1.44c-.69,1.15-1.66,2.03-2.91,2.65-1.25.62-2.68.93-4.27.93Z"/>
    <path class="cls-1" d="M458.34,332.11v-2.48h11.23v2.48h-11.23ZM466.92,346.44c-1.77,0-3.15-.45-4.12-1.35s-1.46-2.18-1.46-3.86v-15.24h3.19v15.11c0,.9.24,1.59.71,2.07s1.16.72,2.05.72c1,0,1.83-.26,2.49-.78l1,2.16c-.49.4-1.07.69-1.75.88-.68.19-1.38.28-2.11.28Z"/>
    <path class="cls-1" d="M475.73,346.44c-.62,0-1.15-.2-1.6-.61-.44-.41-.67-.92-.67-1.55s.22-1.14.67-1.54c.44-.4.97-.6,1.6-.6s1.11.2,1.55.6c.43.4.65.91.65,1.54s-.22,1.14-.65,1.55c-.43.41-.95.61-1.55.61Z"/>
  </g>
  <g>
    <g>
      <path class="cls-2" d="M337.27,256.37c3.18,1.43,5.63,3.47,7.35,6.13,1.72,2.66,2.59,5.78,2.59,9.36s-.86,6.7-2.59,9.33c-1.73,2.63-4.18,4.66-7.35,6.09-3.18,1.43-6.92,2.14-11.23,2.14h-8.31v12.46h-13.48v-47.66h21.79c4.31,0,8.06.71,11.23,2.14ZM331.48,277c1.41-1.2,2.11-2.92,2.11-5.14s-.7-3.95-2.11-5.17c-1.41-1.23-3.5-1.84-6.26-1.84h-7.49v13.96h7.49c2.77,0,4.86-.6,6.26-1.8Z"/>
      <path class="cls-2" d="M357.59,298.99c-2.52-2.34-3.78-5.69-3.78-10.04v-37.58h12.94v36.9c0,1.36.35,2.41,1.06,3.13.7.73,1.69,1.09,2.96,1.09,1.04,0,2.02-.23,2.93-.68l.54,9.74c-1.95.64-3.97.95-6.06.95-4.54,0-8.07-1.17-10.59-3.51Z"/>
      <path class="cls-2" d="M417.2,264.98v36.9h-12.32v-3.68c-2.41,2.86-6.04,4.29-10.89,4.29-3.36,0-6.41-.78-9.16-2.35-2.75-1.57-4.93-3.8-6.54-6.71-1.61-2.9-2.42-6.26-2.42-10.08s.81-7.16,2.42-10.04c1.61-2.88,3.79-5.09,6.54-6.64,2.75-1.54,5.8-2.31,9.16-2.31,4.36,0,7.78,1.27,10.28,3.81v-3.2h12.94ZM402.29,289.87c1.45-1.57,2.18-3.73,2.18-6.5s-.73-4.86-2.18-6.4c-1.45-1.54-3.31-2.31-5.58-2.31s-4.13.77-5.58,2.31c-1.45,1.54-2.18,3.68-2.18,6.4s.73,4.94,2.18,6.5c1.45,1.57,3.31,2.35,5.58,2.35s4.13-.78,5.58-2.35Z"/>
      <path class="cls-2" d="M460.6,268.45c2.79,2.72,4.19,6.83,4.19,12.32v21.11h-12.94v-18.99c0-5.04-2.02-7.56-6.06-7.56-2.22,0-4.01.73-5.34,2.18-1.34,1.45-2.01,3.63-2.01,6.54v17.84h-12.94v-36.9h12.32v4.02c1.45-1.5,3.18-2.64,5.17-3.44,2-.79,4.18-1.19,6.54-1.19,4.58,0,8.27,1.36,11.06,4.09Z"/>
      <path class="cls-2" d="M497.77,291.87c1.29-.5,2.6-1.32,3.91-2.45l6.74,7.08c-3.5,3.99-8.71,5.99-15.66,5.99-4.31,0-8.1-.82-11.37-2.45s-5.8-3.9-7.59-6.81c-1.79-2.9-2.69-6.2-2.69-9.87s.88-6.89,2.66-9.77c1.77-2.88,4.21-5.14,7.32-6.77,3.11-1.63,6.59-2.45,10.45-2.45,3.58,0,6.86.74,9.84,2.21,2.97,1.48,5.34,3.63,7.11,6.47,1.77,2.84,2.66,6.21,2.66,10.11l-26.35,5.04c1.41,2.95,4.2,4.43,8.37,4.43,1.77,0,3.3-.25,4.6-.75ZM486.16,275.64c-1.41,1.38-2.2,3.37-2.38,5.96l14.98-2.93c-.45-1.54-1.32-2.78-2.59-3.71-1.27-.93-2.79-1.4-4.56-1.4-2.22,0-4.04.69-5.45,2.08Z"/>
      <path class="cls-2" d="M540.9,300.38c-1.09.68-2.42,1.2-3.98,1.57-1.57.36-3.23.54-5,.54-4.81,0-8.5-1.18-11.06-3.54-2.56-2.36-3.85-5.88-3.85-10.55v-31.66h12.94v9.6h8.37v9.67h-8.37v12.25c0,1.36.34,2.41,1.02,3.13.68.73,1.61,1.09,2.79,1.09,1.5,0,2.81-.38,3.95-1.16l3.2,9.05Z"/>
    </g>
    <g>
      <path class="cls-1" d="M93.65,277.33c1.79,2.13,2.69,4.87,2.69,8.21,0,4.3-1.59,7.62-4.77,9.93-3.18,2.32-7.88,3.48-14.09,3.48h-23.1v-50.21h21.66c5.59,0,9.93,1.12,13.02,3.37,3.08,2.25,4.63,5.43,4.63,9.54,0,2.77-.68,5.13-2.04,7.07-1.36,1.94-3.24,3.38-5.63,4.34,3.3.72,5.85,2.14,7.64,4.27ZM59.68,253.12v18.22h16c4.06,0,7.2-.78,9.4-2.33,2.2-1.55,3.3-3.81,3.3-6.78s-1.1-5.22-3.3-6.78c-2.2-1.55-5.33-2.33-9.4-2.33h-16ZM87.59,292.28c2.3-1.53,3.44-3.92,3.44-7.17,0-6.26-4.54-9.4-13.63-9.4h-17.72v18.86h17.72c4.49,0,7.89-.76,10.18-2.3Z"/>
      <path class="cls-1" d="M117.6,262.87c2.37-1.29,5.3-1.94,8.79-1.94v4.95l-1.22-.07c-3.97,0-7.08,1.22-9.32,3.66-2.25,2.44-3.37,5.86-3.37,10.26v19.22h-5.09v-37.73h4.88v7.39c1.19-2.53,2.98-4.45,5.34-5.74Z"/>
      <path class="cls-1" d="M169.64,261.22v37.73h-4.88v-7.46c-1.53,2.53-3.55,4.47-6.06,5.81-2.51,1.34-5.34,2.01-8.5,2.01-3.54,0-6.74-.81-9.61-2.44-2.87-1.62-5.12-3.9-6.74-6.81-1.63-2.92-2.44-6.24-2.44-9.97s.81-7.05,2.44-9.97c1.63-2.92,3.87-5.18,6.74-6.78,2.87-1.6,6.07-2.4,9.61-2.4,3.06,0,5.82.63,8.28,1.9,2.46,1.27,4.48,3.12,6.06,5.56v-7.17h5.09ZM157.77,292.96c2.13-1.22,3.8-2.95,5.02-5.2,1.22-2.25,1.83-4.81,1.83-7.68s-.61-5.43-1.83-7.67c-1.22-2.25-2.89-3.98-5.02-5.2-2.13-1.22-4.51-1.83-7.14-1.83s-5.08.61-7.21,1.83c-2.13,1.22-3.8,2.95-5.02,5.2-1.22,2.25-1.83,4.81-1.83,7.67s.61,5.43,1.83,7.68c1.22,2.25,2.89,3.98,5.02,5.2,2.13,1.22,4.53,1.83,7.21,1.83s5.01-.61,7.14-1.83Z"/>
      <path class="cls-1" d="M213.47,290.71v8.24h5.09v-7.39l-5.09-.85Z"/>
      <g>
        <path class="cls-2" d="M221.35,274.39c.3-1.03.68-2.04,1.13-3.01l-.98,2.93s-.08.05-.15.08Z"/>
        <path class="cls-2" d="M289.37,270.04c-2.3,2.71-5.24,4.56-8.25,6.32-5.68,3.31-11.71,5.87-17.87,8.12-1.24.46-1.55,1.07-1.53,2.29.05,4.53-.02,9.05.05,13.58.02,1.34-.34,1.87-1.76,1.78-2.85-.15-2.52.36-2.53-2.48,0-1.56.01-3.14-.02-4.7,0-.37.18-.9-.34-1.06-.48-.14-.69.35-.91.65-1.69,2.34-3.77,4.25-6.33,5.58-8.14,4.22-18.27,2.74-24.76-3.74-1.17-1.15-2.23-1.32-3.7-1.07-.96.16-1.91.3-2.86.44-1.69.24-3.39.44-5.09.57-4.77.43-9.57.43-14.38-.19-1.21-.15-2.37-.54-3.48-1.04-3.92-1.76-4.61-5.02-1.75-8.25,2.22-2.51,4.95-4.35,7.8-6.03,3.74-2.2,7.65-4.05,11.64-5.75,1.62-.69,3.24-1.35,4.88-2.02.02-.01.03-.01.06-.02.19-.07.4-.14.59-.21.12-.03,1.77-.75,2.82-1.18l-.87,3.07c-.71.36-1.75.87-2.26,1.12-.15.07-.26.12-.3.14-1.6.62-3.18,1.26-4.75,1.95-4.19,1.8-8.26,3.83-12.12,6.26-1.77,1.12-3.43,2.38-4.9,3.87-2.44,2.51-1.98,4.23,1.46,5.07,3.39.83,6.87,1.18,10.35.92,1.74-.13,3.48-.29,5.21-.48,1.7-.18,3.39-.36,5.09-.55.89-.09,1.77-.19,2.66-.28.57-.06,1.06-.19,1.57-.44.13-.06.25-.13.37-.2,1.45.09,2.92-.04,4.05-.2,3.8-1.15,7.71-1.82,11.56-2.69,3.53-.79,7.03-1.69,10.5-2.71,4.05-1.2,8.05-2.61,12.05-3.98.27-.09.55-.19.82-.28.26-.08.44-.34.66-.51,8.27-2.96,16.31-6.38,23.16-12.06,1.2-.99,2.67-2.08,2.23-3.83-.41-1.61-2.1-1.77-3.53-2.09-4.76-1.07-9.55-.75-14.35-.42-1.8.12-4.77.46-6.56.58-.8.06-.64-.47-.69-1.35-.06-.87-.23-1.14.55-1.22,6.8-.7,14.77-1.63,21.58-.2.68.14,1.34.36,1.99.59,4.13,1.46,5.03,4.96,2.18,8.32Z"/>
        <path class="cls-1" d="M261.68,282.2c-.12.09-.23.21-.35.32-.09.07-.19.14-.29.18-4.16,1.4-8.29,2.88-12.51,4.13-3.36.99-6.77,1.85-10.2,2.64-3.73.85-7.54,1.49-11.22,2.61-1.15.36-2.17.92-3.93.94-.14-.23-.28-.48-.39-.72-2.55-4.78-3.2-11.23-1.67-17.07.06-.28.14-.56.22-.83.3-1.03.68-2.04,1.13-3.01.06-.15.13-.29.2-.44,1.24-2.54,2.97-4.82,5.23-6.58,3.01-2.34,6.45-3.7,10.18-4.18,3.79-.48,7.55-.02,11.06,1.59,3.45,1.59,6.14,4.09,8.15,7.37.61-.59.36-1.19.37-1.7.01-7.61.06-15.21-.02-22.82-.02-1.52.42-1.98,1.89-1.84,1.19.11,2.22-.23,2.2,1.73-.1,12.56-.07,25.13-.07,37.69Z"/>
      </g>
      <path class="cls-1" d="M218.56,277.07v14.49l-5.09-.85v-13.13c0-3.92-.98-6.91-2.95-8.97-1.96-2.06-4.75-3.08-8.39-3.08-4.07,0-7.28,1.21-9.65,3.61-2.38,2.42-3.55,5.75-3.55,10.01v19.79h-5.09v-37.73h4.87v6.96c1.38-2.29,3.31-4.08,5.78-5.35,2.46-1.27,5.31-1.9,8.57-1.9,4.73,0,8.5,1.38,11.29,4.13,2.8,2.75,4.2,6.76,4.2,12.01Z"/>
    </g>
  </g>
</svg>