<?xml version="1.0" encoding="UTF-8"?>
<svg id="Layer_1" data-name="Layer 1" xmlns="http://www.w3.org/2000/svg" viewBox="0 0 595.28 595.28">
  <defs>
    <style>
      .cls-1 {
        fill: #999;
      }

      .cls-1, .cls-2 {
        stroke-width: 0px;
      }

      .cls-2 {
        fill: #66b5a1;
      }
    </style>
  </defs>
  <path class="cls-2" d="M186.41,306.96c-.13.1-.44.26-.88.52,1.71-5.87,3.87-11.61,6.44-17.14l-5.56,16.62Z"/>
  <path class="cls-2" d="M562.55,283.35c-12.7,14.99-28.99,25.27-45.69,35.01-31.48,18.36-64.94,32.52-99.04,45.01-6.86,2.49-8.57,5.97-8.49,12.65.31,25.09-.1,50.21.26,75.3.13,7.4-1.84,10.31-9.71,9.87-15.82-.86-14,2-14.05-13.77-.03-8.7.05-17.38-.1-26.08-.05-2.05.94-4.99-1.87-5.84-2.65-.81-3.84,1.92-5.07,3.61-9.35,12.99-20.94,23.53-35.09,30.88-45.14,23.4-101.3,15.17-137.25-20.73-6.47-6.44-12.34-7.3-20.49-5.95-41.01,6.88-82.21,9.87-123.69,4.6-6.73-.86-13.14-3.01-19.33-5.79-21.69-9.74-25.53-27.77-9.71-45.66,12.29-13.92,27.48-24.16,43.27-33.46,29.2-17.17,60.24-30.42,91.56-43.04,1.17-.49,2.39-.91,3.61-1.3.52-.18,6.21-2.6,11.43-4.81l-6.36,18.16c-3.92,1.95-7.69,3.79-8.47,4.1-32.39,12.6-64,26.91-93.51,45.51-9.79,6.18-18.99,13.14-27.12,21.48-13.56,13.84-11.04,23.46,8.08,28.13,18.81,4.57,38.08,6.49,57.35,5.09,23.97-1.77,47.85-4.83,71.79-7.25,3.12-.34,5.82-1.07,8.65-2.44.7-.34,1.4-.73,2.13-1.14,8.03.55,16.21-.16,22.44-1.04,21.09-6.42,42.75-10.1,64.11-14.96,19.56-4.42,38.99-9.38,58.16-15.04,22.42-6.62,44.52-14.44,66.68-21.95,1.56-.55,3.12-1.06,4.68-1.58,1.4-.47,2.47-1.9,3.69-2.86,45.82-16.44,90.37-35.43,128.34-66.89,6.65-5.51,14.78-11.53,12.31-21.22-2.26-8.88-11.64-9.79-19.56-11.58-26.39-5.9-52.96-4.08-79.56-2.31-9.9.65-26.42,2.55-36.31,3.25-4.47.34-3.53-2.6-3.84-7.51-.29-4.83-1.27-6.36,3.04-6.81,37.72-3.87,81.87-9.01,119.64-1.12,3.74.78,7.43,2.05,11.07,3.32,22.88,8.08,27.87,27.48,12.05,46.13Z"/>
  <path class="cls-1" d="M409.09,350.67c-.7.55-1.38,1.27-2.08,1.84-.47.39-.96.73-1.51.91-23.04,7.77-45.98,15.97-69.27,22.88-18.62,5.48-37.48,10.29-56.5,14.6-20.73,4.7-41.77,8.29-62.24,14.52-6.39,1.95-12,5.07-21.79,5.22-.78-1.3-1.53-2.65-2.21-4-13.71-25.84-17.43-60.47-9.84-92.13.55-2.36,1.17-4.7,1.87-7.04,1.71-5.87,3.87-11.61,6.44-17.14.13-.31.26-.6.42-.88,6.88-14.57,16.68-27.59,29.51-37.61,16.68-13.01,35.77-20.49,56.47-23.12,21.04-2.65,41.79-.18,61.27,8.75,19.12,8.78,34,22.68,45.22,40.83,3.35-3.3,2.03-6.55,2.03-9.4.1-42.13.34-84.29-.13-126.45-.1-8.47,2.36-10.99,10.52-10.26,6.55.57,12.26-1.25,12.18,9.61-.6,69.61-.34,139.25-.36,208.86Z"/>
</svg>